<svg width="199" height="168" viewBox="0 0 199 168" fill="none" xmlns="http://www.w3.org/2000/svg">
<g id="Group 33697">
<g id="Group 33690">
<g id="Group 33685">
<g id="Group 33684">
<g id="Vector 78">
<path d="M116.138 160.104C123.738 160.104 126.638 163.771 129.638 165.604L105.248 165.604C104.405 165.604 103.969 164.648 104.6 164.088C106.664 162.257 110.315 160.104 116.138 160.104Z" fill="#E2E8F0"/>
<path d="M129.638 137.104L129.638 165.604M129.638 165.604C126.638 163.771 123.738 160.104 116.138 160.104C110.315 160.104 106.664 162.257 104.6 164.088C103.969 164.648 104.405 165.604 105.248 165.604L129.638 165.604Z" stroke="#E2E8F0" stroke-width="4"/>
</g>
<g id="Vector 79">
<path d="M75.1382 160.104C82.7382 160.104 85.6382 163.771 88.6382 165.604L64.2484 165.604C63.4048 165.604 62.9693 164.648 63.6003 164.088C65.6639 162.257 69.315 160.104 75.1382 160.104Z" fill="#E2E8F0"/>
<path d="M88.6382 137.104L88.6382 165.604M88.6382 165.604C85.6382 163.771 82.7382 160.104 75.1382 160.104C69.315 160.104 65.6639 162.257 63.6003 164.088C62.9693 164.648 63.4048 165.604 64.2484 165.604L88.6382 165.604Z" stroke="#E2E8F0" stroke-width="4"/>
</g>
<g id="Group 33682">
<path id="Vector 64" d="M173.466 114.392C161.437 91.0348 141.102 53.2034 128.5 61.1679C112.747 71.1236 151.412 101.756 132.796 114.392C114.18 127.028 96.9951 49.6805 80.0971 61.1679C63.1991 72.6552 96.4223 102.905 83.2476 114.392C72.7078 123.582 54.6068 91.3118 40.0001 66.5503" stroke="#E2E8F0" stroke-width="49.0909" stroke-linecap="round"/>
<g id="Group 33681">
<path id="Vector 87" d="M73 90C73.4594 88.6667 75.6648 86 80.8108 86C85.9567 86 89.0811 88.6667 90 90" stroke="white" stroke-width="3.5" stroke-linecap="round"/>
</g>
<g id="Group 33682_2">
<path id="Vector 87_2" d="M103 90C103.459 88.6667 105.665 86 110.811 86C115.957 86 119.081 88.6667 120 90" stroke="white" stroke-width="3.5" stroke-linecap="round"/>
</g>
</g>
</g>
</g>
</g>
<g id="Vector 82">
<path d="M178 52C178.47 46.4482 169.665 45.196 164.5 45.4999C139 47 161.837 50.0282 178 52Z" fill="#E2E8F0"/>
<path d="M176.618 73.6626C202.168 71.6193 184.834 55.9742 178 52M178 52C178.47 46.4482 169.665 45.196 164.5 45.4999C139 47 161.837 50.0282 178 52Z" stroke="#E2E8F0" stroke-width="4"/>
</g>
<g id="Group 33695">
<path id="Ellipse 19" d="M157.831 8.19369C159.8 2.13978 162.625 0.692585 165.251 1.54677C167.877 2.40096 169.31 5.23307 167.34 11.287C165.371 17.3409 158.755 21.5168 158.755 21.5168C158.755 21.5168 155.862 14.2476 157.831 8.19369Z" fill="#E2E8F0"/>
<g id="Group 33696">
<path id="Ellipse 20" d="M172.992 18.4102C175.486 16.0977 177.18 16.1572 178.183 17.2388C179.186 18.3204 179.118 20.0144 176.625 22.3269C174.131 24.6393 169.958 24.8668 169.958 24.8668C169.958 24.8668 170.499 20.7226 172.992 18.4102Z" fill="#E2E8F0"/>
<path id="Ellipse 21" d="M176.888 27.142C179.398 27.1418 180.285 28.0244 180.285 29.1131C180.285 30.2018 179.398 31.0845 176.888 31.0847C174.378 31.0848 172.005 29.1136 172.005 29.1136C172.005 29.1136 174.378 27.1422 176.888 27.142Z" fill="#E2E8F0"/>
<path id="Ellipse 22" d="M186.142 21.3663C187.832 21.0331 188.555 21.5528 188.71 22.3392C188.865 23.1257 188.394 23.8809 186.703 24.2141C185.013 24.5473 183.134 23.4384 183.134 23.4384C183.134 23.4384 184.452 21.6995 186.142 21.3663Z" fill="#E2E8F0"/>
</g>
</g>
<g id="Vector 83">
<path d="M20.6073 114.254C15.3814 116.186 9.74842 116.232 5.10106 111.782C-4.51561 102.573 11.4316 109.593 20.6073 114.254Z" fill="#E2E8F0"/>
<path d="M42.5 100C39.5461 103.19 26.1951 112.188 20.6073 114.254M20.6073 114.254C15.3814 116.186 9.74842 116.232 5.10106 111.782C-4.51561 102.573 11.4316 109.593 20.6073 114.254Z" stroke="#E2E8F0" stroke-width="4"/>
</g>
</g>
</svg>
