<svg width="64" height="64" viewBox="0 0 64 64" fill="none" xmlns="http://www.w3.org/2000/svg">
<g id="ic/img">
<path id="Icon" fill-rule="evenodd" clip-rule="evenodd" d="M37.9466 5.33301H26.6666C14.8845 5.33301 5.33325 14.8843 5.33325 26.6663V37.973C5.33325 49.7551 14.8845 59.3063 26.6666 59.3063H37.9466C49.7287 59.3063 59.2799 49.7551 59.2799 37.973V26.6663C59.2799 14.8843 49.7287 5.33301 37.9466 5.33301ZM21.6533 16.3197C24.5988 16.3197 26.9866 18.7075 26.9866 21.653C26.9866 24.5985 24.5988 26.9863 21.6533 26.9863C18.7077 26.9863 16.3199 24.5985 16.3199 21.653C16.3199 18.7075 18.7077 16.3197 21.6533 16.3197ZM41.3599 53.653C48.9096 50.8335 53.9231 43.632 53.9466 35.573L53.8666 30.9863C53.8666 29.893 53.6533 27.8397 53.6533 27.8397H49.3066C39.2436 27.8702 30.0548 33.563 25.5466 42.5597C22.2744 39.6345 18.0424 38.0119 13.6533 37.9997H10.4266C10.1886 44.199 13.5557 49.9771 19.0666 52.8263C21.0367 53.8758 23.2344 54.4252 25.4666 54.4263H36.5866C38.2107 54.4496 39.8262 54.1878 41.3599 53.653Z" fill="#E2E8F0"/>
</g>
</svg>
