<svg width="59" height="35" viewBox="0 0 59 35" fill="none" xmlns="http://www.w3.org/2000/svg">
<g id="Group 33684">
<path id="Vector 64" d="M8 25.6755C11.8755 18.1502 18.427 5.96164 22.4871 8.52764C27.5622 11.7352 15.1052 21.6044 21.103 25.6755C27.1009 29.7466 32.6373 4.82664 38.0815 8.52762C43.5258 12.2286 32.8219 21.9745 37.0665 25.6755C40.4622 28.6363 46.294 18.2394 51 10.2617" stroke="#6500C3" stroke-width="15.8161" stroke-linecap="round"/>
<g id="Group 33680">
<path id="Ellipse 12" d="M31.8413 17.0113C31.8413 18.4303 31.492 19.6995 30.9443 20.6033C30.393 21.5129 29.6753 22.0051 28.9416 22.0051C28.208 22.0051 27.4903 21.5129 26.939 20.6033C26.3913 19.6995 26.042 18.4303 26.042 17.0113C26.042 15.5922 26.3913 14.3231 26.939 13.4193C27.4903 12.5096 28.208 12.0175 28.9416 12.0175C29.6753 12.0175 30.393 12.5096 30.9443 13.4193C31.492 14.3231 31.8413 15.5922 31.8413 17.0113Z" fill="white" stroke="#0F172A" stroke-width="0.64436"/>
<path id="Ellipse 13" d="M31.8413 17.0108C31.8413 17.8948 31.6188 18.6798 31.2761 19.2333C30.9304 19.7918 30.4949 20.0715 30.0693 20.0715C29.6437 20.0715 29.2081 19.7918 28.8624 19.2333C28.5197 18.6798 28.2973 17.8948 28.2973 17.0108C28.2973 16.1268 28.5197 15.3419 28.8624 14.7883C29.2081 14.2298 29.6437 13.9501 30.0693 13.9501C30.4949 13.9501 30.9304 14.2298 31.2761 14.7883C31.6188 15.3419 31.8413 16.1268 31.8413 17.0108Z" fill="#0F172A" stroke="#0F172A" stroke-width="0.64436"/>
</g>
<g id="Group 33681">
<path id="Ellipse 12_2" d="M40.218 17.0113C40.218 18.4303 39.8687 19.6995 39.321 20.6033C38.7697 21.5129 38.052 22.0051 37.3184 22.0051C36.5847 22.0051 35.8671 21.5129 35.3157 20.6033C34.768 19.6995 34.4187 18.4303 34.4187 17.0113C34.4187 15.5922 34.768 14.3231 35.3157 13.4193C35.8671 12.5096 36.5847 12.0175 37.3184 12.0175C38.052 12.0175 38.7697 12.5096 39.321 13.4193C39.8687 14.3231 40.218 15.5922 40.218 17.0113Z" fill="white" stroke="#0F172A" stroke-width="0.64436"/>
<path id="Ellipse 13_2" d="M40.218 17.0108C40.218 17.8948 39.9955 18.6798 39.6528 19.2333C39.3071 19.7918 38.8716 20.0715 38.446 20.0715C38.0204 20.0715 37.5848 19.7918 37.2391 19.2333C36.8964 18.6798 36.674 17.8948 36.674 17.0108C36.674 16.1268 36.8964 15.3419 37.2391 14.7883C37.5848 14.2298 38.0204 13.9501 38.446 13.9501C38.8716 13.9501 39.3071 14.2298 39.6528 14.7883C39.9955 15.3419 40.218 16.1268 40.218 17.0108Z" fill="#0F172A" stroke="#0F172A" stroke-width="0.64436"/>
</g>
</g>
</svg>
