<svg width="240" height="240" viewBox="0 0 240 240" fill="none" xmlns="http://www.w3.org/2000/svg">
<path d="M70.8701 177.994C72.9801 175.969 75.4924 175.999 78.9383 178.218C80.5881 179.281 82.4519 180.845 84.588 182.925C88.7462 186.975 90.1131 190.913 90.4781 193.602C90.5916 194.438 89.64 194.858 89.0125 194.294L70.8701 177.994Z" fill="#E2E8F0"/>
<path d="M89.918 156.794V156.794C94.7764 168.347 84.8069 180.657 72.4962 178.304L70.8701 177.994M70.8701 177.994C73.9903 175 77.9903 176.5 84.588 182.925C88.7462 186.975 90.1131 190.913 90.4781 193.602C90.5916 194.438 89.64 194.858 89.0125 194.294L70.8701 177.994Z" stroke="#E2E8F0" stroke-width="4"/>
<path d="M131.5 184.999C123.9 184.999 121 188.666 118 190.499H142.39C143.233 190.499 143.669 189.543 143.038 188.983C140.974 187.152 137.323 184.999 131.5 184.999Z" fill="#E2E8F0"/>
<path d="M118 161.999V190.499M118 190.499C121 188.666 123.9 184.999 131.5 184.999C137.323 184.999 140.974 187.152 143.038 188.983C143.669 189.543 143.233 190.499 142.39 190.499H118Z" stroke="#E2E8F0" stroke-width="4"/>
<path d="M33 139.391C45.0291 116.034 65.364 78.2024 77.9659 86.1669C93.7183 96.1226 55.0534 126.755 73.6698 139.391C92.2863 152.027 109.471 74.6796 126.369 86.1669C143.267 97.6542 110.044 127.904 123.218 139.391C133.758 148.581 151.859 116.311 166.466 91.5493" stroke="#E2E8F0" stroke-width="49.0909" stroke-linecap="round"/>
<path d="M107 112.499C107 116.904 105.916 120.843 104.216 123.648C102.505 126.472 100.277 127.999 98 127.999C95.7229 127.999 93.4954 126.472 91.7841 123.648C90.084 120.843 89 116.904 89 112.499C89 108.095 90.084 104.155 91.7841 101.35C93.4954 98.5265 95.7229 96.999 98 96.999C100.277 96.999 102.505 98.5265 104.216 101.35C105.916 104.155 107 108.095 107 112.499Z" fill="white" stroke="#E2E8F0" stroke-width="2"/>
<path d="M107 112.499C107 115.243 106.31 117.679 105.246 119.397C104.173 121.131 102.821 121.999 101.5 121.999C100.179 121.999 98.8272 121.131 97.7541 119.397C96.6905 117.679 96 115.243 96 112.499C96 109.755 96.6905 107.319 97.7541 105.601C98.8272 103.867 100.179 102.999 101.5 102.999C102.821 102.999 104.173 103.867 105.246 105.601C106.31 107.319 107 109.755 107 112.499Z" fill="#E2E8F0" stroke="#E2E8F0" stroke-width="2"/>
<path d="M133 112.499C133 116.904 131.916 120.843 130.216 123.648C128.505 126.472 126.277 127.999 124 127.999C121.723 127.999 119.495 126.472 117.784 123.648C116.084 120.843 115 116.904 115 112.499C115 108.095 116.084 104.155 117.784 101.35C119.495 98.5265 121.723 96.999 124 96.999C126.277 96.999 128.505 98.5265 130.216 101.35C131.916 104.155 133 108.095 133 112.499Z" fill="white" stroke="#E2E8F0" stroke-width="2"/>
<path d="M133 112.499C133 115.243 132.31 117.679 131.246 119.397C130.173 121.131 128.821 121.999 127.5 121.999C126.179 121.999 124.827 121.131 123.754 119.397C122.69 117.679 122 115.243 122 112.499C122 109.755 122.69 107.319 123.754 105.601C124.827 103.867 126.179 102.999 127.5 102.999C128.821 102.999 130.173 103.867 131.246 105.601C132.31 107.319 133 109.755 133 112.499Z" fill="#E2E8F0" stroke="#E2E8F0" stroke-width="2"/>
<path d="M176.17 135.94C181.511 137.527 187.135 137.205 191.482 132.461C200.476 122.643 185.022 130.69 176.17 135.94Z" fill="#E2E8F0"/>
<path d="M161.916 127.375C165.072 130.364 170.459 134.244 176.17 135.94M176.17 135.94C181.511 137.527 187.135 137.205 191.482 132.461C200.476 122.643 185.022 130.69 176.17 135.94Z" stroke="#E2E8F0" stroke-width="4"/>
<g clip-path="url(#clip0_190_1054)">
<path d="M155.559 46.1516C155.25 45.0911 155.86 43.981 156.92 43.672L184.762 35.5594C185.823 35.2504 186.933 35.8596 187.242 36.9201L226.789 172.644C226.904 173.039 226.894 173.46 226.761 173.849L218.617 197.732C218.17 199.044 216.556 199.514 215.475 198.648L195.776 182.877C195.455 182.62 195.221 182.27 195.106 181.875L155.559 46.1516Z" fill="#E2E8F0"/>
<g clip-path="url(#clip1_190_1054)">
<mask id="mask0_190_1054" style="mask-type:alpha" maskUnits="userSpaceOnUse" x="155" y="35" width="72" height="165">
<path d="M155.559 46.1516C155.25 45.0911 155.86 43.981 156.92 43.672L184.762 35.5594C185.823 35.2504 186.933 35.8596 187.242 36.9201L226.789 172.644C226.904 173.039 226.894 173.46 226.761 173.849L218.617 197.732C218.17 199.044 216.556 199.514 215.475 198.648L195.776 182.877C195.455 182.62 195.221 182.27 195.106 181.875L155.559 46.1516Z" fill="#D9D9D9"/>
</mask>
<g mask="url(#mask0_190_1054)">
<path fill-rule="evenodd" clip-rule="evenodd" d="M205.557 203.445L157.721 39.2725L159.641 38.713L207.477 202.886L205.557 203.445Z" fill="#CBD5E1"/>
<path fill-rule="evenodd" clip-rule="evenodd" d="M211.317 201.767L163.481 37.5938L165.402 37.0343L213.238 201.207L211.317 201.767Z" fill="#CBD5E1"/>
<path fill-rule="evenodd" clip-rule="evenodd" d="M217.078 200.089L169.242 35.916L171.162 35.3565L218.998 199.529L217.078 200.089Z" fill="#CBD5E1"/>
<path fill-rule="evenodd" clip-rule="evenodd" d="M222.838 198.41L175.002 34.2373L176.923 33.6778L224.759 197.851L222.838 198.41Z" fill="#CBD5E1"/>
<path fill-rule="evenodd" clip-rule="evenodd" d="M228.599 196.731L180.763 32.5586L182.683 31.9991L230.519 196.172L228.599 196.731Z" fill="#CBD5E1"/>
</g>
</g>
</g>
<mask id="mask1_190_1054" style="mask-type:alpha" maskUnits="userSpaceOnUse" x="156" y="35" width="71" height="165">
<path d="M156.146 46.2844C155.837 45.2239 156.446 44.1138 157.507 43.8048L184.389 35.972C185.449 35.663 186.559 36.2722 186.868 37.3326L226.419 173.072C226.532 173.457 226.525 173.868 226.401 174.249L218.712 197.907C218.277 199.249 216.626 199.73 215.538 198.832L196.345 183.007C196.035 182.752 195.809 182.409 195.697 182.023L156.146 46.2844Z" fill="#94A3B8"/>
</mask>
<g mask="url(#mask1_190_1054)">
<rect x="206.938" y="196.159" width="19.3939" height="11" transform="rotate(-16.2448 206.938 196.159)" fill="#94A3B8"/>
</g>
<path d="M178.333 126.557C183.882 126.058 188.989 123.681 191.275 117.666C196.006 105.22 184.618 118.408 178.333 126.557Z" fill="#E2E8F0"/>
<path d="M161.923 123.865C165.96 125.477 172.4 127.091 178.333 126.557M178.333 126.557C183.882 126.058 188.989 123.681 191.275 117.666C196.006 105.22 184.618 118.408 178.333 126.557Z" stroke="#E2E8F0" stroke-width="4"/>
<defs>
<clipPath id="clip0_190_1054">
<rect width="33" height="167.5" fill="white" transform="translate(155 44.2314) rotate(-16.2448)"/>
</clipPath>
<clipPath id="clip1_190_1054">
<rect width="33" height="167.5" fill="white" transform="translate(155 44.2314) rotate(-16.2448)"/>
</clipPath>
</defs>
</svg>
